<svg width="24" height="28" viewBox="0 0 24 28" fill="none" xmlns="http://www.w3.org/2000/svg">
<circle cx="12" cy="13.4375" r="12" fill="#348ECB" fill-opacity="0.26"/>
<circle cx="12" cy="13.4375" r="9" fill="#348ECB"/>
<path d="M17.1429 12.1518H13.2857V8.29464C13.2857 7.82134 12.9019 7.4375 12.4286 7.4375H11.5714C11.0981 7.4375 10.7143 7.82134 10.7143 8.29464V12.1518H6.85714C6.38384 12.1518 6 12.5356 6 13.0089V13.8661C6 14.3394 6.38384 14.7232 6.85714 14.7232H10.7143V18.5804C10.7143 19.0537 11.0981 19.4375 11.5714 19.4375H12.4286C12.9019 19.4375 13.2857 19.0537 13.2857 18.5804V14.7232H17.1429C17.6162 14.7232 18 14.3394 18 13.8661V13.0089C18 12.5356 17.6162 12.1518 17.1429 12.1518Z" fill="white"/>
</svg>
