<svg width="30" height="31" viewBox="0 0 30 31" fill="none" xmlns="http://www.w3.org/2000/svg">
<path d="M23.75 23.25H6.25C5.55964 23.25 5 23.8283 5 24.5417C5 25.255 5.55964 25.8333 6.25 25.8333H23.75C24.4404 25.8333 25 25.255 25 24.5417C25 23.8283 24.4404 23.25 23.75 23.25Z" fill="black"/>
<path d="M5 21.9583V24.5416C5 25.255 5.55964 25.8333 6.25 25.8333C6.94036 25.8333 7.5 25.255 7.5 24.5416V21.9583C7.5 21.2449 6.94036 20.6666 6.25 20.6666C5.55964 20.6666 5 21.2449 5 21.9583Z" fill="black"/>
<path d="M22.5 21.9583V24.5416C22.5 25.255 23.0596 25.8333 23.75 25.8333C24.4404 25.8333 25 25.255 25 24.5416V21.9583C25 21.2449 24.4404 20.6666 23.75 20.6666C23.0596 20.6666 22.5 21.2449 22.5 21.9583Z" fill="black"/>
<path d="M15 19.375C14.7409 19.3771 14.4875 19.2958 14.275 19.1425L9.275 15.5C9.00551 15.3025 8.82268 15.0027 8.76646 14.6663C8.71024 14.3298 8.78522 13.9841 8.975 13.7046C9.06973 13.5649 9.1903 13.446 9.32976 13.3547C9.46921 13.2634 9.62478 13.2016 9.78748 13.1728C9.95018 13.1439 10.1168 13.1487 10.2777 13.1868C10.4386 13.2249 10.5906 13.2955 10.725 13.3946L15 16.4817L19.25 13.175C19.5152 12.9695 19.8486 12.8812 20.1768 12.9297C20.505 12.9781 20.8011 13.1593 21 13.4334C21.1989 13.7074 21.2843 14.0519 21.2374 14.391C21.1906 14.7302 21.0152 15.0361 20.75 15.2417L15.75 19.1167C15.5336 19.2844 15.2705 19.375 15 19.375Z" fill="black"/>
<path d="M15 16.7917C14.6685 16.7917 14.3505 16.6556 14.1161 16.4133C13.8817 16.1711 13.75 15.8426 13.75 15.5V5.16667C13.75 4.8241 13.8817 4.49555 14.1161 4.25332C14.3505 4.01109 14.6685 3.875 15 3.875C15.3315 3.875 15.6495 4.01109 15.8839 4.25332C16.1183 4.49555 16.25 4.8241 16.25 5.16667V15.5C16.25 15.8426 16.1183 16.1711 15.8839 16.4133C15.6495 16.6556 15.3315 16.7917 15 16.7917Z" fill="black"/>
</svg>
