<svg width="99" height="99" viewBox="0 0 99 99" fill="none" xmlns="http://www.w3.org/2000/svg">
<circle cx="49.5" cy="49.5" r="49.5" fill="#FEFFCF"/>
<g clip-path="url(#clip0_18_127)">
<path d="M44.8556 68.7291C42.4045 74.0555 34.9164 75.2847 28.1239 71.4719C21.3313 67.6591 17.811 60.2469 20.262 54.9205C22.7131 49.5941 30.2012 48.3649 36.9937 52.1777C43.7863 55.9905 47.3036 63.3993 44.8556 68.7291Z" fill="#954242"/>
<path d="M52.1445 68.7291C54.5955 74.0555 62.0836 75.2847 68.8761 71.4719C75.6687 67.6591 79.1891 60.2469 76.738 54.9205C74.2869 49.5941 54.6783 0.847244 42.3126 15.5261C37.1193 21.6855 49.6964 63.3993 52.1445 68.7291Z" fill="#954242"/>
<path d="M61.2349 61.8248C61.2349 58.1428 59.9114 54.6115 57.5557 52.0079C55.1999 49.4043 52.0047 47.9417 48.6731 47.9417H48.3055C45.8296 47.9505 43.4113 48.7676 41.3544 50.2906C39.2975 51.8135 37.6936 53.9743 36.7442 56.5014C35.7949 59.0285 35.5424 61.8094 36.0185 64.4946C36.4946 67.1798 37.6781 69.6496 39.4203 71.5938C39.3988 71.9832 39.3866 72.376 39.3866 72.7722C39.3866 76.9202 40.6121 80.6281 42.5362 83.0728C42.6006 83.2625 42.6649 83.4487 42.7354 83.6417C45.2294 90.4783 44.3408 96.9865 47.0738 96.9865C47.3638 96.9927 47.6499 96.9112 47.9011 96.7506C48.1522 96.5901 48.3588 96.3566 48.4985 96.0756C48.6387 96.3561 48.8454 96.5891 49.0964 96.7496C49.3474 96.9101 49.6332 96.992 49.9232 96.9865C52.6592 96.9865 51.7615 90.4783 54.2647 83.6417C54.3351 83.4487 54.3995 83.2625 54.4669 83.0728C56.3879 80.6281 57.6134 76.9202 57.6134 72.7722C57.6134 72.376 57.6134 71.9832 57.5797 71.5938C59.9204 69.0008 61.2349 65.4876 61.2349 61.8248Z" fill="#F9AF90"/>
<path d="M57.5858 62.8948C57.5858 56.004 53.5753 50.4169 48.6302 50.4169H48.4985H48.3698C43.4247 50.4169 39.4141 56.004 39.4141 62.8948C39.371 66.0686 40.2888 69.1674 42.0215 71.6988C42.0062 72.0374 41.997 72.3997 41.997 72.7587C41.997 76.4834 42.8702 79.8221 44.2428 82.0231C44.2918 82.1958 44.3347 82.3617 44.3868 82.5378C46.1669 88.6837 45.5327 94.5383 47.4843 94.5383C47.7077 94.5295 47.9236 94.4471 48.1043 94.3017C48.285 94.1563 48.4223 93.9545 48.4985 93.7222C48.7374 94.2471 49.0622 94.5383 49.5157 94.5383C51.4673 94.5383 50.8331 88.6837 52.6132 82.5378C52.6622 82.3617 52.7113 82.1992 52.7572 82.0231C54.1268 79.8221 55.003 76.4902 55.003 72.7587C55.003 72.3997 55.003 72.0476 54.9785 71.6988C56.7112 69.1674 57.6289 66.0686 57.5858 62.8948Z" fill="#FDDAC3"/>
<path d="M39.3069 67.4526C39.9283 68.1395 40.666 68.6844 41.478 69.0561C42.2899 69.4279 43.1602 69.6192 44.039 69.6192C44.9179 69.6192 45.7882 69.4279 46.6001 69.0561C47.412 68.6844 48.1498 68.1395 48.7712 67.4526C48.8451 67.3713 48.8868 67.2609 48.8871 67.1456C48.8874 67.0304 48.8462 66.9197 48.7727 66.838C48.6992 66.7563 48.5992 66.7102 48.495 66.7098C48.3907 66.7095 48.2905 66.755 48.2166 66.8363C47.6681 67.4427 47.0168 67.9238 46.3 68.252C45.5832 68.5802 44.8149 68.7491 44.039 68.7491C43.2632 68.7491 42.4949 68.5802 41.7781 68.252C41.0613 67.9238 40.41 67.4427 39.8615 66.8363C39.7875 66.755 39.6874 66.7095 39.5831 66.7098C39.4788 66.7102 39.3789 66.7563 39.3054 66.838C39.2318 66.9197 39.1907 67.0304 39.191 67.1456C39.1913 67.2609 39.233 67.3713 39.3069 67.4526Z" fill="#954242"/>
<path d="M48.2227 67.4526C48.8441 68.1395 49.5818 68.6844 50.3938 69.0561C51.2057 69.4279 52.076 69.6192 52.9548 69.6192C53.8337 69.6192 54.704 69.4279 55.5159 69.0561C56.3279 68.6844 57.0656 68.1395 57.687 67.4526C57.7609 67.3713 57.8026 67.2609 57.8029 67.1456C57.8032 67.0304 57.762 66.9197 57.6885 66.838C57.615 66.7563 57.5151 66.7102 57.4108 66.7098C57.3065 66.7095 57.2063 66.755 57.1324 66.8363C56.5839 67.4427 55.9326 67.9238 55.2158 68.252C54.499 68.5802 53.7307 68.7491 52.9548 68.7491C52.179 68.7491 51.4107 68.5802 50.6939 68.252C49.9771 67.9238 49.3258 67.4427 48.7773 66.8363C48.7033 66.755 48.6032 66.7095 48.4989 66.7098C48.3946 66.7102 48.2947 66.7563 48.2212 66.838C48.1476 66.9197 48.1065 67.0304 48.1068 67.1456C48.1071 67.2609 48.1488 67.3713 48.2227 67.4526Z" fill="#954242"/>
<path d="M40.3823 71.9223C40.9333 72.5321 41.5875 73.0158 42.3078 73.3459C43.028 73.676 43.8001 73.8459 44.5798 73.8459C45.3595 73.8459 46.1316 73.676 46.8518 73.3459C47.5721 73.0158 48.2264 72.5321 48.7773 71.9223C48.8508 71.841 48.8921 71.7307 48.8921 71.6158C48.8921 71.5009 48.8508 71.3906 48.7773 71.3094C48.7413 71.2683 48.6982 71.2357 48.6506 71.2134C48.6029 71.1911 48.5517 71.1796 48.5 71.1796C48.4483 71.1796 48.3971 71.1911 48.3495 71.2134C48.3018 71.2357 48.2587 71.2683 48.2227 71.3094C47.256 72.3759 45.9458 72.9749 44.5798 72.9749C43.2138 72.9749 41.9037 72.3759 40.9369 71.3094C40.9009 71.2683 40.8578 71.2357 40.8102 71.2134C40.7626 71.1911 40.7113 71.1796 40.6596 71.1796C40.6079 71.1796 40.5567 71.1911 40.5091 71.2134C40.4614 71.2357 40.4183 71.2683 40.3823 71.3094C40.3088 71.3906 40.2675 71.5009 40.2675 71.6158C40.2675 71.7307 40.3088 71.841 40.3823 71.9223Z" fill="#954242"/>
<path d="M48.2227 71.9223C48.7736 72.5321 49.4279 73.0158 50.1482 73.3459C50.8684 73.676 51.6405 73.8459 52.4202 73.8459C53.1999 73.8459 53.972 73.676 54.6922 73.3459C55.4125 73.0158 56.0668 72.5321 56.6177 71.9223C56.6912 71.841 56.7325 71.7307 56.7325 71.6158C56.7325 71.5009 56.6912 71.3906 56.6177 71.3094C56.5817 71.2683 56.5386 71.2357 56.491 71.2134C56.4433 71.1911 56.3921 71.1796 56.3404 71.1796C56.2887 71.1796 56.2375 71.1911 56.1898 71.2134C56.1422 71.2357 56.0991 71.2683 56.0631 71.3094C55.0964 72.3759 53.7862 72.9749 52.4202 72.9749C51.0542 72.9749 49.744 72.3759 48.7773 71.3094C48.7413 71.2683 48.6982 71.2357 48.6506 71.2134C48.6029 71.1911 48.5517 71.1796 48.5 71.1796C48.4483 71.1796 48.3971 71.1911 48.3494 71.2134C48.3018 71.2357 48.2587 71.2683 48.2227 71.3094C48.1492 71.3906 48.1079 71.5009 48.1079 71.6158C48.1079 71.7307 48.1492 71.841 48.2227 71.9223Z" fill="#954242"/>
<path d="M42.0337 75.8976C42.9277 76.8852 44.14 77.4399 45.404 77.4399C46.668 77.4399 47.8802 76.8852 48.7742 75.8976C48.8482 75.8163 48.8898 75.7059 48.8901 75.5907C48.8904 75.4754 48.8493 75.3648 48.7757 75.283C48.7022 75.2013 48.6023 75.1552 48.498 75.1549C48.3937 75.1546 48.2936 75.2001 48.2197 75.2814C47.4728 76.1064 46.46 76.5698 45.404 76.5698C44.348 76.5698 43.3352 76.1064 42.5883 75.2814C42.5527 75.2362 42.5091 75.1996 42.4601 75.1738C42.4112 75.148 42.358 75.1337 42.3038 75.1316C42.2497 75.1296 42.1957 75.1398 42.1453 75.1618C42.0949 75.1838 42.0491 75.217 42.0108 75.2593C41.9724 75.3017 41.9424 75.3523 41.9225 75.408C41.9026 75.4637 41.8934 75.5234 41.8952 75.5833C41.8971 75.6431 41.9101 75.7019 41.9334 75.756C41.9567 75.8101 41.9898 75.8583 42.0307 75.8976H42.0337Z" fill="#954242"/>
<path d="M48.2227 75.8976C49.1167 76.8852 50.329 77.4399 51.593 77.4399C52.8569 77.4399 54.0692 76.8852 54.9632 75.8976C55.0041 75.8583 55.0372 75.8101 55.0605 75.756C55.0838 75.7019 55.0968 75.6431 55.0986 75.5833C55.1005 75.5234 55.0912 75.4637 55.0714 75.408C55.0515 75.3523 55.0214 75.3017 54.9831 75.2593C54.9448 75.217 54.899 75.1838 54.8486 75.1618C54.7982 75.1398 54.7442 75.1296 54.69 75.1316C54.6358 75.1337 54.5827 75.148 54.5337 75.1738C54.4848 75.1996 54.4412 75.2362 54.4056 75.2814C53.6587 76.1064 52.6459 76.5698 51.5899 76.5698C50.5339 76.5698 49.5211 76.1064 48.7742 75.2814C48.7003 75.2001 48.6001 75.1546 48.4959 75.1549C48.3916 75.1552 48.2917 75.2013 48.2181 75.283C48.1446 75.3648 48.1034 75.4754 48.1037 75.5907C48.104 75.7059 48.1457 75.8163 48.2197 75.8976H48.2227Z" fill="#954242"/>
<path d="M42.0338 79.5919C42.9277 80.5795 44.14 81.1342 45.404 81.1342C46.668 81.1342 47.8802 80.5795 48.7742 79.5919C48.8115 79.5519 48.8412 79.504 48.8616 79.4512C48.8821 79.3984 48.8928 79.3416 48.8932 79.2841C48.8935 79.2267 48.8836 79.1697 48.8639 79.1166C48.8441 79.0634 48.8151 79.0151 48.7783 78.9745C48.7415 78.9339 48.6978 78.9017 48.6497 78.8799C48.6016 78.8581 48.5501 78.8471 48.4981 78.8475C48.4462 78.848 48.3947 78.8598 48.3469 78.8824C48.2991 78.905 48.2559 78.9378 48.2197 78.979C47.4728 79.804 46.46 80.2675 45.404 80.2675C44.348 80.2675 43.3352 79.804 42.5883 78.979C42.5148 78.8973 42.4149 78.8512 42.3106 78.8509C42.2063 78.8505 42.1062 78.896 42.0322 78.9773C41.9583 79.0586 41.9166 79.169 41.9163 79.2842C41.916 79.3995 41.9571 79.5102 42.0307 79.5919H42.0338Z" fill="#954242"/>
<path d="M48.2227 79.5919C49.1167 80.5795 50.3289 81.1342 51.5929 81.1342C52.8569 81.1342 54.0692 80.5795 54.9632 79.5919C54.9996 79.5514 55.0284 79.5034 55.0481 79.4507C55.0677 79.3979 55.0777 79.3413 55.0776 79.2842C55.0774 79.2272 55.0671 79.1707 55.0472 79.118C55.0273 79.0654 54.9983 79.0175 54.9616 78.9773C54.925 78.9371 54.8816 78.9052 54.8338 78.8835C54.7861 78.8618 54.7349 78.8507 54.6833 78.8509C54.6317 78.851 54.5806 78.8624 54.5329 78.8844C54.4853 78.9064 54.442 78.9385 54.4056 78.979C53.6587 79.804 52.6459 80.2675 51.5899 80.2675C50.5339 80.2675 49.5211 79.804 48.7742 78.979C48.738 78.9378 48.6947 78.905 48.6469 78.8824C48.5991 78.8598 48.5477 78.848 48.4957 78.8475C48.4438 78.8471 48.3922 78.8581 48.3441 78.8799C48.296 78.9017 48.2523 78.9339 48.2156 78.9745C48.1788 79.0151 48.1497 79.0634 48.13 79.1166C48.1103 79.1697 48.1003 79.2267 48.1007 79.2841C48.1011 79.3416 48.1118 79.3984 48.1322 79.4512C48.1526 79.504 48.1824 79.5519 48.2197 79.5919H48.2227Z" fill="#954242"/>
<path d="M44.0161 83.8787C44.6479 84.5756 45.5041 84.9669 46.3967 84.9669C47.2893 84.9669 48.1454 84.5756 48.7773 83.8787C48.8508 83.7975 48.8921 83.6872 48.8921 83.5723C48.8921 83.4574 48.8508 83.3471 48.7773 83.2658C48.7413 83.2248 48.6982 83.1921 48.6506 83.1698C48.6029 83.1475 48.5517 83.136 48.5 83.136C48.4483 83.136 48.3971 83.1475 48.3494 83.1698C48.3018 83.1921 48.2587 83.2248 48.2227 83.2658C47.7381 83.7991 47.0821 84.0985 46.3982 84.0985C45.7143 84.0985 45.0583 83.7991 44.5737 83.2658C44.5001 83.1841 44.4002 83.138 44.2959 83.1377C44.1917 83.1374 44.0915 83.1829 44.0176 83.2641C43.9436 83.3454 43.9019 83.4558 43.9016 83.5711C43.9014 83.6863 43.9425 83.797 44.0161 83.8787Z" fill="#954242"/>
<path d="M48.2227 83.8787C48.8546 84.5756 49.7107 84.9669 50.6033 84.9669C51.496 84.9669 52.3521 84.5756 52.984 83.8787C53.0204 83.8383 53.0492 83.7903 53.0688 83.7375C53.0885 83.6847 53.0985 83.6282 53.0984 83.5711C53.0982 83.514 53.0879 83.4576 53.068 83.4049C53.0481 83.3522 53.019 83.3044 52.9824 83.2641C52.9458 83.2239 52.9024 83.192 52.8546 83.1703C52.8069 83.1486 52.7557 83.1375 52.7041 83.1377C52.6524 83.1379 52.6013 83.1493 52.5537 83.1713C52.506 83.1932 52.4627 83.2254 52.4263 83.2658C51.9417 83.7991 51.2857 84.0985 50.6018 84.0985C49.9179 84.0985 49.2619 83.7991 48.7773 83.2658C48.7413 83.2248 48.6982 83.1921 48.6506 83.1698C48.6029 83.1475 48.5517 83.136 48.5 83.136C48.4483 83.136 48.3971 83.1475 48.3494 83.1698C48.3018 83.1921 48.2587 83.2248 48.2227 83.2658C48.1492 83.3471 48.1079 83.4574 48.1079 83.5723C48.1079 83.6872 48.1492 83.7975 48.2227 83.8787Z" fill="#954242"/>
<path d="M44.0161 87.915C44.6479 88.6118 45.5041 89.0032 46.3967 89.0032C47.2893 89.0032 48.1454 88.6118 48.7773 87.915C48.8508 87.8337 48.8921 87.7235 48.8921 87.6085C48.8921 87.4936 48.8508 87.3834 48.7773 87.3021C48.7413 87.2611 48.6982 87.2284 48.6506 87.2061C48.6029 87.1838 48.5517 87.1723 48.5 87.1723C48.4483 87.1723 48.3971 87.1838 48.3494 87.2061C48.3018 87.2284 48.2587 87.2611 48.2227 87.3021C47.7381 87.8354 47.0821 88.1348 46.3982 88.1348C45.7143 88.1348 45.0583 87.8354 44.5737 87.3021C44.5001 87.2204 44.4002 87.1743 44.2959 87.174C44.1917 87.1737 44.0915 87.2192 44.0176 87.3004C43.9436 87.3817 43.9019 87.4921 43.9016 87.6073C43.9014 87.7226 43.9425 87.8333 44.0161 87.915Z" fill="#954242"/>
<path d="M48.2227 87.915C48.8546 88.6118 49.7107 89.0032 50.6033 89.0032C51.496 89.0032 52.3521 88.6118 52.984 87.915C53.0575 87.8333 53.0987 87.7226 53.0984 87.6073C53.0981 87.4921 53.0564 87.3817 52.9824 87.3004C52.9085 87.2192 52.8083 87.1737 52.7041 87.174C52.5998 87.1743 52.4999 87.2204 52.4263 87.3021C51.9417 87.8354 51.2857 88.1348 50.6018 88.1348C49.9179 88.1348 49.2619 87.8354 48.7773 87.3021C48.7413 87.2611 48.6982 87.2284 48.6506 87.2061C48.6029 87.1838 48.5517 87.1723 48.5 87.1723C48.4483 87.1723 48.3971 87.1838 48.3494 87.2061C48.3018 87.2284 48.2587 87.2611 48.2227 87.3021C48.1492 87.3834 48.1079 87.4936 48.1079 87.6085C48.1079 87.7235 48.1492 87.8337 48.2227 87.915Z" fill="#954242"/>
<path d="M47.7754 42.2665C46.9298 52.4046 46.8103 64.0326 39.1108 64.6624C36.6904 69.166 31.059 70.2732 27.6306 68.2415C20.7492 69.4098 13.4909 61.9501 11.5607 52.3639C9.22602 46.5567 14.6797 31.7898 18.6412 31.634C19.9955 15.4144 30.0847 10.2269 38.9944 11.1343C40.4834 8.82161 44.3868 10.1524 44.3133 14.104C50.0304 15.5871 48.8049 30.1035 47.7754 42.2665Z" fill="#954242"/>
<path d="M29.7722 19.4033C31.3624 19.4948 33.0904 19.6607 34.1903 21.1573C34.8888 20.26 35.9091 19.8334 36.9202 19.1832C38.256 18.3232 38.6635 16.9484 38.2989 15.0995C38.1669 14.3843 37.9793 13.6831 37.7382 13.0035C37.6739 12.8207 37.6034 12.6412 37.5299 12.4651C37.4761 12.4039 37.438 12.3279 37.4196 12.245C37.3635 12.2068 37.3163 12.1547 37.2817 12.0927C34.5625 12.0268 31.8641 12.6318 29.3831 13.8636C30.2257 15.13 30.1675 17.6764 29.7722 19.4033Z" fill="#F7A498"/>
<path d="M29.7722 33.0731C29.5455 31.5934 28.9664 27.8212 27.2813 28.749C27.2348 28.7771 27.1835 28.794 27.1307 28.7987C27.0779 28.8034 27.0248 28.7957 26.9749 28.7761C26.7352 29.1735 26.4612 29.5443 26.1569 29.8834C25.299 30.8247 23.5894 32.0133 22.7866 30.3981C21.699 28.2276 22.3853 24.7974 23.5679 22.8267C24.9068 20.5918 26.7819 19.129 28.8806 19.1832C29.187 17.8051 29.4781 14.9268 28.4456 14.3884C27.7279 14.815 27.0416 15.303 26.3928 15.8479C22.4741 19.1561 20.1548 24.3132 19.4838 31.1566C19.7504 31.0753 20.0966 31.2988 20.0629 31.7796C19.9921 33.4131 20.1565 35.0487 20.55 36.6252C21.0862 36.1884 21.1628 34.8712 21.2087 34.1635C21.2731 33.3745 22.18 33.4659 22.1279 34.2549C22.0207 35.5112 21.8215 37.0315 20.9636 37.6952C21.4569 38.7111 22.1892 39.2698 23.2707 38.8939C23.3351 36.4593 24.3431 34.045 26.0772 32.9783C26.6195 32.6397 26.9964 33.747 26.4449 34.0822C25.2684 34.8035 24.3553 36.5846 24.1531 38.3961C25.1151 38.0575 26.1998 38.2438 26.8401 39.2799C27.2078 39.8759 26.4969 40.675 26.1262 40.079C25.7249 39.4289 25.0478 39.3443 24.435 39.5508C24.4019 39.593 24.3625 39.6285 24.3186 39.6558L24.1439 39.7574C24.1886 40.194 24.2919 40.6208 24.4503 41.0238C25.8382 44.4539 28.7121 42.6424 29.6006 39.605C30.2042 37.4582 30.1154 35.2606 29.7722 33.0731Z" fill="#F7A498"/>
<path d="M46.8961 43.4787C46.847 43.4291 46.8076 43.369 46.7802 43.3021C46.7528 43.2351 46.738 43.1628 46.7368 43.0893C46.4304 39.1275 40.9767 38.816 38.976 40.719C38.4889 41.1761 37.919 40.2517 38.4092 39.7878C40.5539 37.7561 45.4561 37.7832 47.1044 40.9357C47.2607 39.053 47.4108 37.1195 47.5456 35.1793C44.1754 32.897 40.0239 34.4377 36.8589 37.8882C36.8084 37.9477 36.7443 37.9912 36.6734 38.0141C36.6025 38.0371 36.5273 38.0386 36.4557 38.0186C36.3841 37.9985 36.3186 37.9576 36.2662 37.9002C36.2137 37.8427 36.1761 37.7708 36.1573 37.6918C35.7002 36.3922 35.6559 34.9595 36.0317 33.6285C36.4882 31.8101 37.0887 29.9748 35.9581 28.4612C34.9654 27.1305 33.0965 25.7963 33.3477 23.5005C33.3921 23.0642 33.4879 22.6362 33.6327 22.2273C32.4592 20.4496 30.2073 20.7341 28.5651 20.5918C28.4732 20.587 28.3866 20.5434 28.323 20.4699C26.7543 20.646 25.2254 21.7871 24.2879 23.5581C23.5679 24.9125 22.4496 28.126 23.4913 29.6531C24.2236 30.7265 25.5839 29.1621 26.0956 28.3393C26.9745 27.0183 27.4479 25.4212 27.4467 23.7815C27.4284 23.0027 28.3261 22.7657 28.3444 23.5445C28.3733 24.8869 28.1381 26.2201 27.6551 27.4521C29.4566 27.2558 30.2931 30.3913 30.6117 32.5008C31.0958 35.694 31.2521 39.4018 29.5271 42.1446C28.6294 43.5735 27.5387 44.4065 26.1569 44.1492C25.0171 43.9324 23.8467 42.7575 23.4821 41.2676C23.3973 40.914 23.3359 40.5542 23.2983 40.1908C21.7664 40.6716 20.7216 39.6761 20.0659 38.0914C18.4053 38.2336 16.9776 40.2382 16.3342 42.2259C16.1504 42.7772 16.005 43.3432 15.8991 43.9189C16.7753 43.9799 18.3502 43.8647 18.5861 42.4459C18.7086 41.6773 19.6155 41.7687 19.4899 42.5407C19.1376 44.735 17.3023 45.2226 15.8715 45.1447L15.8072 45.1819C15.8072 45.3005 15.8072 45.4156 15.8317 45.5206C15.9205 46.2926 16.469 48.7611 17.2993 47.8265C18.1296 46.8919 19.0028 45.954 20.167 46.1334C21.7511 46.3908 23.1359 47.515 24.7107 47.7825C25.8964 47.9856 27.1618 48.1922 28.3628 47.8062C29.5639 47.4202 30.4156 46.4077 31.3746 45.3682C32.5511 44.0916 33.6817 43.3365 35.1952 43.4211C37.0335 43.5193 38.7616 44.2101 40.5417 44.6842C42.5669 45.2226 44.5737 45.1278 46.6418 44.7655C46.6933 44.7534 46.7465 44.7534 46.798 44.7655C46.8287 44.3117 46.8624 43.8884 46.8961 43.4787Z" fill="#F7A498"/>
<path d="M31.1908 62.1363C29.8641 62.7221 28.85 63.4908 28.179 65.2042C27.9168 65.9047 27.6096 66.5837 27.2599 67.2359L27.5662 67.1952L27.7807 67.158L27.9737 67.2731C28.8087 67.75 29.7209 68.0389 30.6577 68.123C33.2987 68.3939 36.7088 67.263 38.4368 64.1511C36.718 61.2289 33.743 61.0155 31.1908 62.1363Z" fill="#F7A498"/>
<path d="M14.8359 54.206C14.5204 53.7166 14.1154 53.3059 13.6472 53.0006C13.3266 52.7608 12.9796 52.5674 12.6146 52.4249C12.5393 52.3965 12.4626 52.3728 12.3849 52.3538C12.9665 55.0604 13.9937 57.6258 15.415 59.9218C15.7248 59.2253 16.1718 58.6144 16.7233 58.1339C15.7153 57.2434 14.8206 55.6147 14.8359 54.206Z" fill="#F7A498"/>
<path d="M14.1037 42.2936C14.4935 42.4018 14.8594 42.5965 15.1791 42.8658C15.8194 40.0215 17.5291 37.3363 19.6738 36.8758C19.3299 35.5047 19.1507 34.0895 19.1406 32.6668L18.6351 32.6871C17.4463 32.7345 15.7459 34.8678 14.3089 38.1049C13.7328 39.4182 13.2444 40.7763 12.8475 42.1683C13.2695 42.1071 13.6984 42.1499 14.1037 42.2936Z" fill="#F7A498"/>
<path d="M23.7242 48.7645C22.805 48.4259 21.9257 47.8706 20.9943 47.5557C19.6063 47.0884 18.9476 47.6098 17.8661 48.7171C17.477 49.1133 17.1062 49.3943 16.616 49.3232C15.4702 49.12 14.9033 46.4687 14.9064 45.165C14.9097 44.8414 14.9281 44.5181 14.9615 44.1966C14.6867 43.834 14.3105 43.5827 13.8923 43.4821C13.6515 43.4117 13.4028 43.3797 13.1539 43.3873C13.0594 43.391 12.9657 43.4081 12.8751 43.4381C12.7494 43.4787 12.7586 43.5702 12.8414 43.3535C12.8119 43.446 12.7606 43.528 12.6927 43.5912C12.6248 43.6543 12.5428 43.6961 12.4553 43.7124C11.8088 46.4687 11.5545 49.2115 12.0294 51.1212C12.4928 51.1039 12.9522 51.2207 13.3622 51.4598C14.0491 51.8105 14.6721 52.2972 15.2005 52.8956C15.506 52.4384 15.9353 52.1003 16.4261 51.9305C16.996 51.7003 17.1308 52.9057 16.567 53.1326C16.4009 53.1872 16.2477 53.2817 16.1185 53.4093C15.9893 53.5369 15.8872 53.6945 15.8194 53.8708C16.3633 53.8758 16.9006 54.0033 17.3984 54.2455C17.8962 54.4877 18.3441 54.8395 18.7148 55.2794C19.1529 55.7738 18.6137 56.7863 18.1694 56.2953C17.8763 55.9342 17.5211 55.6414 17.1244 55.4338C16.7278 55.2263 16.2977 55.1082 15.8593 55.0864C16.1871 56.1497 17.1185 57.2468 17.7588 57.4567C17.8262 57.477 17.8967 57.4906 17.9672 57.5075C18.0331 57.4975 18.1003 57.5093 18.1602 57.5414C19.3857 57.731 20.6603 57.1316 21.9073 57.0707V57.0233C22.4435 54.741 21.5703 52.9938 20.5623 51.3177C20.2007 50.7149 20.9116 49.9158 21.2762 50.5185C21.776 51.3191 22.1932 52.1788 22.5201 53.0818H22.5385C24.4932 53.5728 26.3897 51.7003 26.932 49.181C25.8493 49.2361 24.7658 49.0954 23.7242 48.7645Z" fill="#F7A498"/>
<path d="M27.8757 63.098C26.549 61.1273 25.3909 59.1261 23.3381 58.4962C21.6377 57.9714 19.5481 59.2548 17.8232 58.7739C17.0235 59.0956 16.4475 59.8507 16.0278 60.8327V60.8598C18.5432 64.4728 21.9196 66.9142 25.3695 67.2663C25.6207 67.2934 25.8719 67.3036 26.1232 67.3036C26.1377 67.2096 26.1712 67.1205 26.2212 67.0428C26.9351 65.9119 27.3119 64.378 28.0258 63.2504C27.9661 63.2126 27.9149 63.1605 27.8757 63.098Z" fill="#F7A498"/>
<path d="M37.7106 54.3143C36.6536 56.0582 33.3447 60.2367 32.3581 57.8528C29.3923 56.837 28.2219 51.8323 29.7385 48.2803C29.1678 48.692 28.5281 48.9729 27.8573 49.1065C27.3119 52.154 25.1918 54.6428 22.8449 54.3821C23.0006 55.2874 22.9881 56.2183 22.8081 57.1181C25.4399 57.6497 26.8922 59.7762 28.5865 62.2955C28.6191 62.3452 28.645 62.4 28.6631 62.458C29.5829 61.5574 30.6937 60.9284 31.8924 60.6295C34.5947 59.8846 37.4073 60.3586 39.1568 63.3723C39.1963 63.4378 39.2234 63.5116 39.2365 63.589C42.6465 63.2334 44.3745 60.4162 45.3642 56.407C42.815 57.0233 39.5735 56.5018 37.7106 54.3143Z" fill="#F7A498"/>
<path d="M46.7031 45.9472C44.3929 46.3468 42.1655 46.3942 39.9105 45.7237C37.7443 45.0804 34.6253 43.5194 32.5787 45.5984C32.1467 46.0353 31.7453 46.4585 31.3532 46.8581C32.5481 46.9292 33.602 48.1584 33.6572 49.8684C33.6817 50.6472 32.7809 50.8842 32.7564 50.102C32.7135 48.7273 31.8618 47.9146 30.9181 48.1279C29.1901 51.0806 29.9806 56.1056 32.8698 56.7422C33.0168 55.5402 33.2037 54.2602 32.5818 53.2985C32.2018 52.7127 32.9157 51.917 33.2956 52.4994C34.1719 53.8539 33.9084 55.53 33.7338 57.1892C34.7203 56.644 36.5556 54.2805 37.104 53.4272C36.43 52.2454 36.0929 50.7183 36.2951 48.7577C36.3748 47.9721 37.2817 48.0805 37.199 48.8491C36.5648 55.0085 42.2543 56.1056 45.6522 55.0966C46.1822 52.3674 46.4549 49.2081 46.7031 45.9472Z" fill="#F7A498"/>
<path d="M44.6993 23.0197C45.5081 23.8561 45.4407 26.2704 44.975 27.6553C46.1087 27.8471 47.1298 28.5201 47.8213 29.5313C47.8642 27.9499 47.8704 26.4228 47.8213 24.987C47.0156 23.2398 45.8513 21.97 44.6993 23.0197Z" fill="#F7A498"/>
<path d="M47.7478 31.6273C46.7153 28.7558 43.8261 27.8822 41.8101 29.9613C41.5251 30.8789 40.6765 31.3564 39.9993 31.59C39.4264 31.7898 39.2885 30.5742 39.8584 30.3879C40.2046 30.2694 40.7929 30.0493 40.9583 29.5414C40.9201 29.4866 40.891 29.4247 40.8725 29.3586C40.5662 28.3122 39.8645 27.8415 39.0771 27.591C38.5134 27.4115 38.8565 26.2602 39.4172 26.4363C39.9218 26.5837 40.3871 26.8621 40.7746 27.2485C41.162 27.6349 41.4603 28.118 41.6446 28.6576C42.3203 28.0819 43.1298 27.7297 43.9793 27.6418C44.0022 27.5681 44.0364 27.4994 44.0804 27.4386C44.4419 26.9307 44.5951 24.3572 44.0528 23.978C44.0091 23.9848 43.9648 23.9848 43.9211 23.978C43.6601 24.2467 43.3434 24.4403 42.9988 24.5419C42.6542 24.6434 42.2922 24.6498 41.9449 24.5604C41.3842 24.3979 41.4792 23.1755 42.0491 23.338C42.3017 23.4149 42.5683 23.4165 42.8217 23.3428C43.0752 23.269 43.3065 23.1225 43.4921 22.9181C43.2777 21.4689 42.0491 20.8085 41.041 20.5207C40.4742 20.3582 40.8205 19.2069 41.3811 19.3695C42.5883 19.7081 43.7311 20.5478 44.1968 21.9903C45.4224 20.7612 46.6785 21.4248 47.6774 22.8301C47.3066 18.7058 46.3017 15.7192 44.1325 15.1605L43.5197 14.9979V14.1379C43.5534 12.2924 42.3861 11.2055 41.2157 11.0903C40.9054 11.0426 40.5893 11.0864 40.2993 11.2172C40.0093 11.348 39.7557 11.5613 39.5643 11.8353L39.2947 12.2552L38.8933 12.2146L38.5287 12.184C38.9222 13.3188 39.1827 14.5046 39.3038 15.7124C39.5367 18.6854 38.0783 19.8808 36.2002 20.8831C35.0145 21.523 33.4856 23.1755 34.5579 25.0006C35.1707 26.0164 36.0102 26.6937 36.6597 27.6519C37.3257 28.5615 37.6396 29.725 37.533 30.8891C37.3185 32.809 36.4575 34.5563 36.7884 36.4186C40.0882 33.1307 44.1754 31.8237 47.6161 33.8824C47.6712 33.1127 47.7151 32.3609 47.7478 31.6273Z" fill="#F7A498"/>
<path d="M46.8961 43.4787C46.847 43.4292 46.8076 43.3691 46.7802 43.3021C46.7528 43.2352 46.738 43.1628 46.7368 43.0893C46.6879 42.4496 46.4801 41.8372 46.1363 41.3197C45.7924 40.8023 45.3259 40.3999 44.7882 40.1569C44.3805 41.8296 43.8497 43.4627 43.2011 45.0397C44.3525 45.0592 45.5031 44.9628 46.6387 44.7519C46.6902 44.7399 46.7435 44.7399 46.795 44.7519C46.8287 44.3117 46.8624 43.8885 46.8961 43.4787Z" fill="#F48177"/>
<path d="M45.695 34.58C45.5705 36.05 45.3576 37.5093 45.0578 38.9481C45.9117 39.3403 46.6292 40.0252 47.1044 40.9019C47.2607 39.0192 47.4108 37.0857 47.5456 35.1455C46.9755 34.7598 46.3556 34.4721 45.7073 34.2921C45.7073 34.3937 45.7042 34.4851 45.695 34.58Z" fill="#F48177"/>
<path d="M31.1908 62.1363C29.8641 62.7221 28.85 63.4908 28.179 65.2042C27.9168 65.9047 27.6096 66.5837 27.2599 67.2359L27.5662 67.1952L27.7807 67.158L27.9737 67.2731C28.8087 67.75 29.7209 68.0389 30.6577 68.123C33.2987 68.3939 36.7088 67.263 38.4368 64.1511C36.718 61.2289 33.743 61.0155 31.1908 62.1363Z" fill="#F48177"/>
<path d="M13.3316 55.6146C13.8818 57.13 14.5805 58.5744 15.415 59.9218C15.7248 59.2253 16.1718 58.6144 16.7233 58.1339L16.6528 58.0662C15.4697 57.3824 14.3563 56.5606 13.3316 55.6146Z" fill="#F48177"/>
<path d="M25.7463 60.1453C23.162 60.3871 20.5628 59.9412 18.1664 58.845C18.0559 58.8282 17.9465 58.8045 17.8385 58.7739C17.0389 59.0956 16.4629 59.8507 16.0431 60.8327V60.8598C18.5585 64.4728 21.9349 66.9142 25.3848 67.2663C25.636 67.2934 25.8873 67.3036 26.1385 67.3036C26.153 67.2096 26.1865 67.1205 26.2365 67.0428C26.9504 65.9119 27.3273 64.378 28.0411 63.2504C27.9792 63.2134 27.9258 63.1613 27.8849 63.098C27.2353 62.0598 26.5207 61.0731 25.7463 60.1453Z" fill="#F48177"/>
<path d="M37.7107 54.3144C36.6781 56.0074 33.4948 60.0437 32.4286 58.0019C30.711 58.9853 28.8612 59.6564 26.9504 59.9895C27.5019 60.6905 28.032 61.4726 28.5865 62.2955C28.6192 62.3452 28.645 62.4 28.6631 62.458C29.5829 61.5574 30.6937 60.9284 31.8924 60.6295C34.5947 59.8846 37.4073 60.3586 39.1568 63.3723C39.1963 63.4379 39.2234 63.5116 39.2365 63.589C42.6465 63.2335 44.3745 60.4162 45.3642 56.407C42.815 57.0233 39.5735 56.5018 37.7107 54.3144Z" fill="#F48177"/>
<path d="M46.7031 45.9472C45.3763 46.1913 44.0298 46.2787 42.6864 46.208C41.5093 48.7854 39.9914 51.1546 38.1825 53.2376C39.8891 55.4893 43.3022 55.7907 45.6338 55.0966C46.1822 52.3674 46.4549 49.2081 46.7031 45.9472Z" fill="#F48177"/>
<path d="M44.8218 23.1619C45.2079 23.6902 45.3488 24.6213 45.3243 25.5762C45.4499 26.3178 45.5572 27.0661 45.6307 27.828C46.5019 28.13 47.2678 28.7212 47.8244 29.5211C47.8673 27.9398 47.8734 26.4126 47.8244 24.9769C47.0401 23.2635 45.9064 22.014 44.7759 22.9452L44.8218 23.1619Z" fill="#F48177"/>
<path d="M44.4389 21.7567C45.5939 20.8255 46.746 21.4892 47.6835 22.8064C47.3128 18.682 46.3078 15.6955 44.1386 15.1368L43.5259 14.9742V14.1142C43.5596 12.2687 42.3922 11.1818 41.2218 11.0666C40.9116 11.0189 40.5954 11.0627 40.3054 11.1935C40.0154 11.3244 39.7618 11.5376 39.5704 11.8116L39.4816 11.9504C41.7186 14.8138 43.4052 18.1502 44.4389 21.7567Z" fill="#F48177"/>
<path d="M45.787 33.0867C46.4282 33.2505 47.0465 33.509 47.6253 33.8553C47.6723 33.1036 47.7121 32.3564 47.7448 31.6137C47.3834 30.5451 46.6652 29.6702 45.7379 29.1689C45.8265 30.4725 45.8429 31.7809 45.787 33.0867Z" fill="#F48177"/>
<path d="M36.9263 14.1277C36.9906 14.9911 35.5935 14.3681 33.9483 14.6627C32.303 14.9573 31.0315 16.0646 30.9671 15.2011C30.9028 14.3376 32.1927 13.3963 33.8349 13.0983C35.4771 12.8003 36.8558 13.2642 36.9263 14.1277Z" fill="white"/>
<path d="M18.4727 34.1126C18.966 34.6544 17.6057 35.5281 16.5333 37.2753C15.461 39.0226 15.0902 40.9797 14.597 40.4413C14.1037 39.9029 14.5694 38.0474 15.6387 36.3001C16.708 34.5529 17.9611 33.5742 18.4727 34.1126Z" fill="white"/>
<path d="M13.399 44.1559C14.0455 44.1559 13.3775 45.5104 13.353 47.1459C13.3285 48.7814 13.9658 50.1189 13.3102 50.1325C12.6545 50.146 12.1551 48.822 12.1796 47.1696C12.2041 45.5172 12.7495 44.1559 13.399 44.1559Z" fill="white"/>
<path d="M28.6171 16.1933C28.9572 16.9145 27.4774 17.2091 26.0741 18.4417C24.6709 19.6742 23.8743 21.4146 23.5311 20.69C23.188 19.9654 24.0489 18.3739 25.4522 17.1312C26.8554 15.8885 28.277 15.4686 28.6171 16.1933Z" fill="white"/>
<path d="M49.2246 42.2665C50.0702 52.4046 50.1897 64.0326 57.8892 64.6624C60.3096 69.166 65.941 70.2732 69.3694 68.2415C76.2508 69.4098 83.5091 61.9501 85.4393 52.3639C87.774 46.5567 82.3203 31.7898 78.3588 31.634C77.0045 15.4144 66.9153 10.2269 58.0056 11.1343C56.5166 8.82161 52.6132 10.1524 52.6867 14.104C46.9665 15.5871 48.2105 30.1035 49.2246 42.2665Z" fill="#954242"/>
<path d="M67.2278 19.4033C65.6376 19.4948 63.9096 19.6607 62.8097 21.1573C62.1112 20.26 61.0909 19.8334 60.0798 19.1832C58.744 18.3232 58.3365 16.9484 58.7011 15.0995C58.8331 14.3843 59.0207 13.6831 59.2618 13.0035C59.3261 12.8207 59.3966 12.6412 59.4701 12.4651C59.5239 12.4039 59.562 12.3279 59.5804 12.245C59.6358 12.2059 59.6829 12.1539 59.7183 12.0927C62.4375 12.0268 65.1359 12.6318 67.6169 13.8636C66.7743 15.13 66.8325 17.6764 67.2278 19.4033Z" fill="#F7A498"/>
<path d="M67.2278 33.0731C67.4545 31.5934 68.0336 27.8212 69.7187 28.749C69.7652 28.7771 69.8165 28.794 69.8693 28.7987C69.9221 28.8034 69.9752 28.7957 70.0251 28.7761C70.2648 29.1735 70.5388 29.5443 70.8431 29.8834C71.701 30.8247 73.4106 32.0133 74.2134 30.3981C75.301 28.2276 74.6147 24.7974 73.4321 22.8267C72.0932 20.5918 70.2181 19.129 68.1194 19.1832C67.813 17.8051 67.5066 14.9268 68.5544 14.3884C69.2721 14.815 69.9584 15.303 70.6072 15.8479C74.5259 19.1561 76.8452 24.3132 77.5162 31.1566C77.2496 31.0753 76.9034 31.2988 76.9371 31.7796C77.0079 33.4131 76.8435 35.0487 76.45 36.6252C75.9138 36.1884 75.8372 34.8712 75.7912 34.1635C75.7269 33.3745 74.82 33.4659 74.8721 34.2549C74.9793 35.5112 75.1785 37.0315 76.0364 37.6952C75.5431 38.7111 74.8108 39.2698 73.7293 38.8939C73.6619 36.4593 72.6569 34.045 70.9228 32.9783C70.3805 32.6397 70.0036 33.747 70.5551 34.0822C71.7316 34.8035 72.6447 36.5846 72.8469 38.3961C71.8848 38.0575 70.8002 38.2438 70.1599 39.2799C69.7922 39.8759 70.503 40.675 70.8738 40.079C71.2751 39.4289 71.9522 39.3443 72.565 39.5508C72.5981 39.593 72.6374 39.6285 72.6814 39.6558L72.8561 39.7574C72.8114 40.194 72.7081 40.6208 72.5497 41.0238C71.1587 44.4539 68.2879 42.6424 67.3994 39.605C66.7958 37.4582 66.8969 35.2606 67.2278 33.0731Z" fill="#F7A498"/>
<path d="M50.1039 43.4787C50.153 43.4291 50.1924 43.369 50.2198 43.3021C50.2472 43.2351 50.262 43.1628 50.2633 43.0893C50.5696 39.1275 56.0233 38.816 58.024 40.719C58.5111 41.1761 59.081 40.2517 58.5908 39.7878C56.4461 37.7561 51.5439 37.7832 49.8956 40.9357C49.7393 39.053 49.5892 37.1195 49.4544 35.1793C52.8246 32.897 56.9761 34.4377 60.1411 37.8882C60.1917 37.9477 60.2557 37.9912 60.3266 38.0141C60.3975 38.0371 60.4727 38.0386 60.5443 38.0186C60.6159 37.9985 60.6813 37.9576 60.7338 37.9002C60.7863 37.8427 60.8239 37.7708 60.8427 37.6918C61.2998 36.3922 61.3441 34.9595 60.9683 33.6285C60.5118 31.8101 59.9113 29.9748 61.0419 28.4612C62.0346 27.1305 63.9035 25.7963 63.6523 23.5005C63.6079 23.0642 63.5121 22.6362 63.3673 22.2273C64.5408 20.4496 66.7927 20.7341 68.4349 20.5918C68.5266 20.5863 68.6131 20.5428 68.677 20.4699C70.2457 20.646 71.7746 21.7871 72.709 23.5581C73.4321 24.9125 74.5473 28.126 73.5087 29.6531C72.7764 30.7265 71.4161 29.1621 70.9044 28.3393C70.0255 27.0183 69.552 25.4212 69.5532 23.7815C69.5716 23.0027 68.6739 22.7657 68.6555 23.5445C68.6267 24.8869 68.8619 26.2201 69.3449 27.4521C67.5434 27.2558 66.7069 30.3913 66.3883 32.5008C65.9042 35.694 65.7479 39.4018 67.4729 42.1446C68.3675 43.5735 69.4613 44.4065 70.8431 44.1492C71.9829 43.9324 73.1533 42.7575 73.5179 41.2676C73.6026 40.914 73.6641 40.5542 73.7017 40.1908C75.2336 40.6716 76.2784 39.6761 76.9341 38.0914C78.5947 38.2336 80.0224 40.2382 80.6658 42.2259C80.8496 42.7772 80.995 43.3432 81.1009 43.9189C80.2246 43.9799 78.6498 43.8647 78.4139 42.4459C78.2914 41.6773 77.3845 41.7687 77.5101 42.5407C77.8624 44.735 79.6977 45.2226 81.1285 45.1447L81.1928 45.1819C81.1928 45.3005 81.1928 45.4156 81.1683 45.5206C81.0795 46.2926 80.531 48.7611 79.7007 47.8265C78.8704 46.8919 77.9972 45.954 76.833 46.1334C75.2489 46.3908 73.8641 47.515 72.2893 47.7825C71.1036 47.9856 69.8382 48.1922 68.6372 47.8062C67.4361 47.4202 66.5844 46.4077 65.6254 45.3682C64.4489 44.0916 63.3183 43.3365 61.8048 43.4211C59.9665 43.5193 58.2384 44.2101 56.4583 44.6842C54.4331 45.2226 52.4263 45.1278 50.3582 44.7655C50.3067 44.7533 50.2535 44.7533 50.202 44.7655L50.1039 43.4787Z" fill="#F7A498"/>
<path d="M65.8092 62.1363C67.1359 62.7221 68.15 63.4908 68.821 65.2042C69.0832 65.9047 69.3904 66.5837 69.7401 67.2359L69.4338 67.1952L69.2193 67.158L69.0263 67.2731C68.1904 67.7504 67.277 68.0393 66.3393 68.123C63.7013 68.3939 60.2882 67.263 58.5632 64.1511C60.282 61.2289 63.257 61.0155 65.8092 62.1363Z" fill="#F7A498"/>
<path d="M82.1641 54.206C82.4796 53.7166 82.8846 53.3059 83.3529 53.0006C83.6734 52.7608 84.0204 52.5674 84.3854 52.4249C84.4607 52.3965 84.5374 52.3728 84.6152 52.3538C84.0335 55.0604 83.0064 57.6258 81.585 59.9218C81.2752 59.2253 80.8282 58.6144 80.2767 58.1339C81.2817 57.2434 82.1794 55.6147 82.1641 54.206Z" fill="#F7A498"/>
<path d="M82.8963 42.2936C82.5065 42.4018 82.1406 42.5965 81.8209 42.8658C81.1806 40.0215 79.4709 37.3363 77.3262 36.8758C77.6701 35.5047 77.8493 34.0895 77.8594 32.6668L78.3649 32.6871C79.5537 32.7345 81.2541 34.8678 82.691 38.1049C83.2659 39.4188 83.7543 40.7768 84.1525 42.1683C83.7305 42.1071 83.3016 42.1499 82.8963 42.2936Z" fill="#F7A498"/>
<path d="M73.2758 48.7645C74.195 48.4259 75.0743 47.8706 76.0057 47.5557C77.3937 47.0884 78.0524 47.6098 79.1339 48.7171C79.523 49.1133 79.8937 49.3943 80.384 49.3232C81.5298 49.12 82.0967 46.4687 82.0936 45.165C82.0903 44.8414 82.0719 44.5181 82.0384 44.1966C82.316 43.8302 82.6969 43.5774 83.12 43.4787C83.3607 43.4083 83.6094 43.3763 83.8584 43.3839C83.9529 43.3876 84.0466 43.4047 84.1372 43.4347C84.2628 43.4754 84.2536 43.5668 84.1709 43.3501C84.2003 43.4426 84.2517 43.5247 84.3196 43.5878C84.3875 43.6509 84.4694 43.6928 84.5569 43.709C85.2034 46.4653 85.4577 49.2081 84.9828 51.1179C84.5194 51.1006 84.06 51.2173 83.65 51.4565C82.9632 51.8072 82.3401 52.2938 81.8117 52.8922C81.5062 52.435 81.077 52.0969 80.5862 51.9271C80.0163 51.6969 79.8815 52.9024 80.4452 53.1292C80.6114 53.1838 80.7645 53.2783 80.8937 53.4059C81.023 53.5335 81.1251 53.6911 81.1928 53.8674C80.6489 53.8724 80.1117 53.9999 79.6138 54.2421C79.116 54.4843 78.6681 54.8361 78.2975 55.276C77.8593 55.7704 78.3986 56.7829 78.8428 56.2919C79.1359 55.9308 79.4912 55.638 79.8878 55.4304C80.2845 55.2229 80.7146 55.1048 81.153 55.083C80.8252 56.1463 79.8937 57.2434 79.2534 57.4533L79.0451 57.5041C78.9791 57.4941 78.9119 57.5059 78.852 57.538C77.6265 57.7276 76.3519 57.1283 75.105 57.0673V57.0233C74.5688 54.741 75.442 52.9938 76.45 51.3177C76.8115 50.7149 76.1007 49.9158 75.7361 50.5185C75.2363 51.319 74.8191 52.1788 74.4922 53.0818H74.4738C72.5191 53.5728 70.6225 51.7003 70.0802 49.181C71.1588 49.2346 72.2381 49.0939 73.2758 48.7645Z" fill="#F7A498"/>
<path d="M69.1243 63.098C70.451 61.1273 71.6091 59.1261 73.6619 58.4962C75.3623 57.9714 77.4519 59.2548 79.1768 58.7739C79.9765 59.0956 80.5525 59.8507 80.9722 60.8327V60.8598C78.4568 64.4728 75.0804 66.9142 71.6305 67.2663C71.3793 67.2934 71.1281 67.3036 70.8768 67.3036C70.8623 67.2096 70.8288 67.1205 70.7788 67.0428C70.0649 65.9119 69.6881 64.378 68.9742 63.2504C69.0339 63.2126 69.0851 63.1605 69.1243 63.098Z" fill="#F7A498"/>
<path d="M59.2893 54.3143C60.3464 56.0582 63.6553 60.2367 64.6419 57.8528C67.6077 56.837 68.7781 51.8323 67.2615 48.2803C67.8322 48.692 68.4719 48.9729 69.1427 49.1065C69.6881 52.154 71.8082 54.6428 74.1551 54.3821C73.9994 55.2874 74.0119 56.2183 74.1919 57.1181C71.5601 57.6497 70.1078 59.7762 68.4135 62.2955C68.3809 62.3452 68.355 62.4 68.3369 62.458C67.4171 61.5574 66.3063 60.9284 65.1076 60.6295C62.4053 59.8846 59.5927 60.3586 57.8432 63.3723C57.8044 63.4386 57.7764 63.512 57.7605 63.589C54.3535 63.2334 52.6255 60.4162 51.6328 56.407C54.185 57.0233 57.4265 56.5018 59.2893 54.3143Z" fill="#F7A498"/>
<path d="M50.297 45.9472C52.6071 46.3468 54.8345 46.3942 57.0895 45.7237C59.2556 45.0804 62.3746 43.5194 64.4213 45.5984C64.8533 46.0353 65.2547 46.4585 65.6468 46.8581C64.4519 46.9292 63.398 48.1584 63.3428 49.8684C63.3183 50.6472 64.2191 50.8842 64.2436 50.102C64.2865 48.7273 65.1382 47.9146 66.0819 48.1279C67.8099 51.0806 67.0194 56.1056 64.1302 56.7422C63.9832 55.5402 63.7963 54.2602 64.4182 53.2985C64.7982 52.7127 64.0843 51.917 63.7044 52.4994C62.8281 53.8539 63.0916 55.53 63.2662 57.1892C62.2797 56.644 60.4444 54.2805 59.896 53.4272C60.57 52.2454 60.9071 50.7183 60.7049 48.7577C60.6252 47.9721 59.7183 48.0805 59.801 48.8491C60.4352 55.0085 54.7457 56.1056 51.3478 55.0966C50.8178 52.3674 50.5451 49.2081 50.297 45.9472Z" fill="#F7A498"/>
<path d="M52.3007 23.0197C51.4919 23.8561 51.5593 26.2704 52.025 27.6553C50.8913 27.8471 49.8701 28.5201 49.1786 29.5313C49.1357 27.9499 49.1296 26.4228 49.1786 24.987C49.9844 23.2398 51.1487 21.97 52.3007 23.0197Z" fill="#F7A498"/>
<path d="M49.2522 31.6273C50.2847 28.7558 53.1739 27.8822 55.1899 29.9613C55.4749 30.8789 56.3205 31.3564 57.0006 31.59C57.5736 31.7898 57.7115 30.5742 57.1416 30.3879C56.7954 30.2694 56.2071 30.0493 56.0417 29.5414C56.0799 29.4866 56.109 29.4247 56.1275 29.3586C56.4338 28.3122 57.1355 27.8415 57.9229 27.591C58.4866 27.4115 58.1435 26.2602 57.5828 26.4363C57.0782 26.5837 56.6129 26.8621 56.2254 27.2485C55.838 27.6349 55.5397 28.118 55.3554 28.6576C54.6797 28.0819 53.8702 27.7297 53.0207 27.6418C52.9978 27.5681 52.9636 27.4994 52.9196 27.4386C52.5581 26.9307 52.4049 24.3572 52.9472 23.978C52.9909 23.9848 53.0352 23.9848 53.0789 23.978C53.3399 24.2467 53.6566 24.4403 54.0012 24.5419C54.3458 24.6434 54.7078 24.6498 55.0551 24.5604C55.6158 24.3979 55.5208 23.1755 54.9509 23.338C54.6983 23.4149 54.4317 23.4165 54.1783 23.3428C53.9248 23.269 53.6935 23.1225 53.5079 22.9181C53.7223 21.4689 54.9509 20.8085 55.9589 20.5207C56.5257 20.3582 56.1795 19.2069 55.6189 19.3695C54.4117 19.7081 53.2689 20.5478 52.8032 21.9903C51.5776 20.7612 50.3215 21.4248 49.3226 22.8301C49.6934 18.7058 50.6983 15.7192 52.8675 15.1605L53.4803 14.9979V14.1379C53.4466 12.2924 54.6139 11.2055 55.7843 11.0903C56.0946 11.0426 56.4107 11.0864 56.7007 11.2172C56.9907 11.348 57.2443 11.5613 57.4357 11.8353L57.7053 12.2552L58.1067 12.2146L58.4713 12.184C58.0778 13.3188 57.8173 14.5046 57.6961 15.7124C57.4633 18.6854 58.9217 19.8808 60.7998 20.8831C61.9855 21.523 63.5144 23.1755 62.442 25.0006C61.8293 26.0164 60.9898 26.6937 60.3403 27.6519C59.6743 28.5615 59.3604 29.725 59.467 30.8891C59.6815 32.809 60.5425 34.5563 60.2116 36.4186C56.9118 33.1307 52.8246 31.8237 49.3839 33.8824C49.3308 33.1127 49.2869 32.3609 49.2522 31.6273Z" fill="#F7A498"/>
<path d="M50.1039 43.4787C50.153 43.4292 50.1924 43.3691 50.2198 43.3021C50.2472 43.2352 50.262 43.1628 50.2632 43.0893C50.3121 42.4496 50.5199 41.8372 50.8637 41.3197C51.2076 40.8023 51.6741 40.3999 52.2118 40.1569C52.6195 41.8296 53.1503 43.4627 53.7989 45.0397C52.6475 45.0592 51.4969 44.9628 50.3613 44.7519C50.3098 44.7398 50.2565 44.7398 50.205 44.7519L50.1039 43.4787Z" fill="#F48177"/>
<path d="M51.305 34.58C51.4295 36.05 51.6424 37.5093 51.9422 38.9481C51.0883 39.3403 50.3708 40.0252 49.8956 40.9019C49.7393 39.0192 49.5892 37.0857 49.4544 35.1455C50.0245 34.7598 50.6444 34.4721 51.2927 34.2921C51.2927 34.3937 51.2958 34.4851 51.305 34.58Z" fill="#F48177"/>
<path d="M65.8092 62.1363C67.1359 62.7221 68.15 63.4908 68.821 65.2042C69.0832 65.9047 69.3904 66.5837 69.7401 67.2359L69.4338 67.1952L69.2193 67.158L69.0263 67.2731C68.1904 67.7504 67.277 68.0393 66.3393 68.123C63.7013 68.3939 60.2882 67.263 58.5632 64.1511C60.282 61.2289 63.257 61.0155 65.8092 62.1363Z" fill="#F48177"/>
<path d="M83.6684 55.6146C83.1182 57.13 82.4195 58.5744 81.585 59.9218C81.2752 59.2253 80.8282 58.6144 80.2767 58.1339L80.3472 58.0662C81.5303 57.3824 82.6438 56.5606 83.6684 55.6146Z" fill="#F48177"/>
<path d="M71.2537 60.1453C73.838 60.3871 76.4372 59.9412 78.8337 58.845C78.9441 58.8282 79.0535 58.8045 79.1615 58.7739C79.9612 59.0956 80.5372 59.8507 80.9569 60.8327V60.8598C78.4415 64.4728 75.0651 66.9142 71.6152 67.2663C71.364 67.2934 71.1127 67.3036 70.8615 67.3036C70.847 67.2096 70.8135 67.1205 70.7635 67.0428C70.0496 65.9119 69.6727 64.378 68.9589 63.2504C69.0208 63.2134 69.0742 63.1613 69.1151 63.098C69.7647 62.0598 70.4793 61.0731 71.2537 60.1453Z" fill="#F48177"/>
<path d="M59.2893 54.3144C60.3219 56.0074 63.5052 60.0437 64.5714 58.0019C66.289 58.9853 68.1388 59.6564 70.0496 59.9895C69.4981 60.6905 68.968 61.4726 68.4135 62.2955C68.3808 62.3452 68.355 62.4 68.3369 62.458C67.4171 61.5574 66.3063 60.9284 65.1076 60.6295C62.4053 59.8846 59.5927 60.3586 57.8432 63.3723C57.8044 63.4386 57.7764 63.512 57.7605 63.589C54.3535 63.2335 52.6255 60.4162 51.6328 56.407C54.185 57.0233 57.4265 56.5018 59.2893 54.3144Z" fill="#F48177"/>
<path d="M50.297 45.9472C51.6247 46.1913 52.9722 46.2787 54.3167 46.208C55.4916 48.786 57.0087 51.1553 58.8175 53.2376C57.111 55.4893 53.6978 55.7907 51.3662 55.0966C50.8178 52.3674 50.5451 49.2081 50.297 45.9472Z" fill="#F48177"/>
<path d="M52.1751 23.1619C51.789 23.6902 51.645 24.6213 51.6726 25.5762C51.547 26.3178 51.4398 27.0661 51.3662 27.828C50.495 28.13 49.7291 28.7212 49.1725 29.5211C49.1296 27.9398 49.1235 26.4126 49.1725 24.9769C49.9569 23.2635 51.0905 22.014 52.2364 22.9452L52.1751 23.1619Z" fill="#F48177"/>
<path d="M52.5611 21.7567C51.4061 20.8255 50.2541 21.4892 49.3165 22.8064C49.6872 18.682 50.6922 15.6955 52.8614 15.1368L53.4742 14.9742V14.1142C53.4405 12.2687 54.6078 11.1818 55.7782 11.0666C56.0884 11.0189 56.4046 11.0627 56.6946 11.1935C56.9846 11.3244 57.2382 11.5376 57.4296 11.8116L57.5185 11.9504C55.2814 14.8138 53.5948 18.1502 52.5611 21.7567Z" fill="#F48177"/>
<path d="M51.213 33.0867C50.5718 33.2505 49.9535 33.509 49.3747 33.8553C49.3277 33.1036 49.2879 32.3564 49.2552 31.6137C49.6166 30.5451 50.3348 29.6702 51.2621 29.1689C51.1735 30.4725 51.1571 31.7809 51.213 33.0867Z" fill="#F48177"/>
<path d="M60.0737 14.1277C60.0094 14.9911 61.4065 14.3681 63.0518 14.6627C64.6971 14.9573 65.9685 16.0646 66.0329 15.2011C66.0972 14.3376 64.8074 13.3963 63.1651 13.0983C61.5229 12.8003 60.1411 13.2642 60.0737 14.1277Z" fill="white"/>
<path d="M78.5426 34.1126C78.0493 34.6544 79.4097 35.5281 80.482 37.2753C81.5544 39.0226 81.9251 40.9797 82.4184 40.4413C82.9117 39.9029 82.4459 38.0474 81.3767 36.3001C80.3074 34.5529 79.0389 33.5742 78.5426 34.1126Z" fill="white"/>
<path d="M83.601 44.1559C82.9515 44.1559 83.6224 45.5104 83.6469 47.1459C83.6714 48.7814 83.0342 50.1189 83.6898 50.1325C84.3455 50.146 84.8449 48.822 84.8204 47.1696C84.7959 45.5172 84.2505 44.1559 83.601 44.1559Z" fill="white"/>
<path d="M68.3829 16.1933C68.0428 16.9145 69.5226 17.2091 70.9259 18.4417C72.3291 19.6742 73.1257 21.4146 73.4689 20.69C73.812 19.9654 72.9511 18.3739 71.5478 17.1312C70.1446 15.8885 68.7199 15.4686 68.3829 16.1933Z" fill="white"/>
</g>
<defs>
<clipPath id="clip0_18_127">
<rect width="75" height="87" fill="white" transform="translate(11 10)"/>
</clipPath>
</defs>
</svg>
