<svg width="19" height="18" viewBox="0 0 19 18" fill="none" xmlns="http://www.w3.org/2000/svg">
<path d="M7.093 2.04495L4.15823 5.34892H0.791667C0.354271 5.34892 0 5.74785 0 6.24038V11.5891C0 12.0813 0.354271 12.4806 0.791667 12.4806H4.15823L7.093 15.7846C7.58878 16.3428 8.44444 15.9506 8.44444 15.1542V2.67529C8.44444 1.87818 7.58813 1.48742 7.093 2.04495ZM14.7893 0.147634C14.4209 -0.124632 13.9257 -0.00985673 13.684 0.405786C13.4418 0.820685 13.5448 1.37822 13.9132 1.65048C16.0992 3.26588 17.4038 5.98148 17.4038 8.91513C17.4038 11.8488 16.0992 14.5644 13.9132 16.1798C13.5448 16.4517 13.4418 17.0096 13.684 17.4241C13.9162 17.8219 14.4073 17.9649 14.7893 17.6822C17.4256 15.7337 19 12.4557 19 8.91475C19 5.37381 17.4256 2.09621 14.7893 0.147634ZM15.8333 8.91475C15.8333 6.55499 14.7758 4.3854 13.0041 3.11136C12.635 2.84615 12.1455 2.96947 11.9116 3.38846C11.6777 3.80744 11.7869 4.362 12.156 4.62758C13.4672 5.57067 14.25 7.17307 14.25 8.91475C14.25 10.6564 13.4672 12.2588 12.156 13.2019C11.7869 13.4671 11.6777 14.0217 11.9116 14.4411C12.1264 14.8259 12.6083 15.0034 13.0041 14.7181C14.7758 13.4441 15.8333 11.2749 15.8333 8.91475ZM11.1569 6.05949C10.7749 5.82437 10.293 5.97926 10.0812 6.4105C9.87043 6.84174 10.01 7.38367 10.3929 7.62177C10.8188 7.88512 11.0833 8.38099 11.0833 8.91475C11.0833 9.44889 10.8188 9.94439 10.3933 10.2077C10.0103 10.4458 9.87076 10.9878 10.0815 11.419C10.2936 11.8521 10.7759 12.0059 11.1572 11.77C12.0884 11.1924 12.667 10.0985 12.667 8.91438C12.667 7.73023 12.0884 6.63671 11.1569 6.05949Z" fill="#FFB84C"/>
</svg>
