<svg width="99" height="99" viewBox="0 0 99 99" fill="none" xmlns="http://www.w3.org/2000/svg">
<circle cx="49.5" cy="49.5" r="49.5" fill="#F4D9BF"/>
<g clip-path="url(#clip0_18_125)">
<path d="M20.8204 39.1599C21.7929 41.3045 23.3961 43.2251 25.4011 43.5173C26.1411 43.6137 26.8881 43.4733 27.575 43.1087C26.9532 42.2066 28.2122 38.3542 28.3943 37.0777C28.4209 36.8212 28.4739 36.5703 28.552 36.3316C28.5959 36.2062 28.6639 36.0969 28.7496 36.0138C28.5205 35.5926 28.2495 35.2112 27.9436 34.8791C26.1672 33.0409 23.6403 32.2409 21.4354 33.177L21.2667 33.2508L19.7235 35.9855C19.8345 36.4592 19.9944 36.9273 20.1343 37.367C20.3309 37.9838 20.5602 38.5828 20.8204 39.1599Z" fill="#E6E6E6"/>
<path d="M37.6713 32.499C37.4271 32.6295 37.1917 32.8026 37.0784 32.865C35.957 33.5326 34.8064 34.1171 33.6323 34.6153C32.3173 35.1206 30.9747 35.4999 29.6155 35.75C30.4682 37.5032 30.7946 39.7982 30.0596 41.6053C32.0869 39.3869 35.6107 35.8181 37.6469 33.9458C37.7046 33.8919 37.7934 33.8096 37.8889 33.7075C37.8378 33.3444 37.8001 32.9898 37.7779 32.6437C37.7351 32.6051 37.6988 32.5559 37.6713 32.499Z" fill="#E6E6E6"/>
<path d="M28.552 36.3316C28.4739 36.5703 28.4209 36.8212 28.3943 37.0777C28.2122 38.3542 26.9532 42.2066 27.575 43.1087C27.9851 42.9157 28.3603 42.6186 28.6782 42.2354C28.9961 41.8522 29.25 41.3908 29.4246 40.879C29.9109 39.2847 29.5312 37.4124 28.7585 36.0139C28.6695 36.0955 28.5984 36.2049 28.552 36.3316Z" fill="#E6E6E6"/>
<path d="M68.4089 35.716C67.1322 35.4611 65.8709 35.0933 64.6341 34.6153C63.6082 34.1867 62.6022 33.6838 61.621 33.109C61.1842 32.9383 60.7599 32.719 60.3531 32.4537C60.3193 32.5205 60.2764 32.5791 60.2265 32.6267C60.2088 32.8934 60.1821 33.1714 60.1466 33.4494C60.1866 33.5005 60.2265 33.5515 60.2665 33.5969C60.3758 33.7234 60.4907 33.8418 60.6107 33.9515C62.5269 35.716 65.7399 38.9613 67.8027 41.1911C67.2653 39.4237 67.6029 37.3387 68.4089 35.716Z" fill="#E6E6E6"/>
<path d="M29.6156 35.7642C29.3235 35.153 28.9561 34.6061 28.5275 34.1444C26.6779 32.2296 24.2288 31.3076 21.8662 31.9374C21.693 31.9828 21.5154 32.0395 21.3333 32.1076C21.4572 32.2287 21.5758 32.3584 21.6886 32.4962L21.26 33.2537L21.4288 33.1799C23.6337 32.2523 26.1583 33.0522 27.9369 34.882C28.2429 35.214 28.5138 35.5955 28.7429 36.0167C29.5245 37.4153 29.9042 39.2876 29.4091 40.8819C29.2344 41.3937 28.9805 41.8551 28.6627 42.2383C28.3448 42.6215 27.9695 42.9186 27.5594 43.1116C26.8726 43.4762 26.1255 43.6166 25.3856 43.5201C23.3872 43.2364 21.7774 41.3074 20.8049 39.1627C20.5447 38.5866 20.3155 37.9885 20.1187 37.3727C19.9788 36.933 19.819 36.4649 19.708 35.9912L19.2639 36.7827C19.2217 36.8564 19.175 36.933 19.1284 37.0068C19.2794 37.5344 19.4459 38.0535 19.6325 38.5613C20.5984 41.2024 22.2437 43.5967 24.5174 44.374C26.4226 45.0236 28.6874 44.2293 29.8332 42.1046C29.9151 41.9539 29.9893 41.7966 30.0552 41.6336C30.7946 39.8181 30.4682 37.5174 29.6156 35.7642Z" fill="#A5B8BE"/>
<path d="M47.1371 90.966C47.0847 90.9845 47.03 90.9896 46.9761 90.9811C46.9222 90.9726 46.8702 90.9506 46.8229 90.9163C46.7757 90.8821 46.7342 90.8362 46.7009 90.7815C46.6675 90.7267 46.643 90.6641 46.6286 90.5972C46.3991 88.5547 46.1682 86.5122 45.9358 84.4696C45.4917 80.5151 45.0321 76.5578 44.659 72.5919C44.2016 67.7437 44.2882 62.7197 43.0692 58.0418C42.9404 57.5539 43.4911 57.1284 43.7598 57.5283C44.3482 58.4049 44.8877 59.3326 45.5361 60.1325C45.6805 60.3168 45.8365 60.4857 46.0024 60.6375C46.0652 60.6922 46.1313 60.7406 46.2 60.7822L46.2444 60.802C46.2727 60.7711 46.2994 60.7379 46.3244 60.7027C46.3303 60.693 46.3355 60.6825 46.3399 60.6715C46.4353 60.4872 46.5101 60.2867 46.562 60.0758C46.7904 59.0964 46.929 58.0863 46.975 57.0659C47.0926 55.4289 47.1438 53.785 47.1282 52.1412C47.0906 48.4694 46.7708 44.8113 46.1734 41.2194C45.9336 39.7812 45.696 38.3145 45.2031 36.9784C44.7664 35.7712 44.18 34.6619 43.4667 33.6934C42.8005 32.7912 41.9679 32.0083 40.9998 31.7303C39.9784 31.4466 39.0125 31.9033 38.2064 32.7005C38.1391 32.7552 38.0601 32.7816 37.9805 32.776C37.9008 32.7704 37.8246 32.7331 37.7624 32.6693C37.7846 33.0154 37.8223 33.37 37.8734 33.7331C38.4907 38.2238 40.982 43.8946 41.9501 45.7101C42.5052 46.7456 43.1025 47.7838 43.3667 48.9952C44.0684 52.2206 42.2321 55.4206 41.9834 58.7538C41.8813 60.1212 42.05 61.4942 42.2188 62.8502C43.3453 71.8921 44.5073 80.9255 45.7049 89.9504C45.7391 90.3207 45.8193 90.6817 45.9425 91.0199H47.157C47.157 91.0057 47.157 90.9886 47.1415 90.9716L47.1371 90.966Z" fill="#F69576"/>
<path d="M17.0501 37.3301C17.1986 37.6016 17.3988 37.8203 17.6319 37.9655C18.1981 38.2492 18.7421 37.6393 19.1418 37.0038C19.1884 36.9301 19.235 36.8535 19.2772 36.7798L19.7213 35.9883L21.2645 33.2536L21.693 32.4961C21.5803 32.3583 21.4617 32.2286 21.3378 32.1075C19.8545 30.6295 16.193 28.1019 17.563 25.6282C19.0507 22.9474 22.337 26.3828 23.5449 27.648C25.5588 29.7529 27.7215 31.7217 30.1862 32.794C32.6087 33.8436 35.3754 33.9288 37.6491 32.4564C37.6094 32.3356 37.6035 32.2009 37.6327 32.0753C37.6618 31.9496 37.7241 31.8407 37.809 31.7671C38.0534 31.5236 38.315 31.3099 38.5906 31.1288C39.0821 30.8064 39.6213 30.6201 40.1731 30.582C40.7248 30.5439 41.2766 30.6548 41.7925 30.9075C42.8361 31.4647 43.7527 32.3497 44.457 33.4805C45.1976 34.6145 45.7919 35.8919 46.2178 37.2648C46.6996 38.8166 46.9372 40.5187 47.1793 42.1527C47.7622 46.0349 48.0241 49.9847 47.9608 53.9369C47.9397 55.3512 47.8597 56.7631 47.721 58.1666C47.664 58.7941 47.5735 59.4158 47.4501 60.0275C47.3582 60.5606 47.1687 61.0584 46.8973 61.48C46.2134 62.4048 45.343 61.3949 44.8323 60.7367C44.6657 60.5268 44.5081 60.3055 44.3526 60.0842C44.6822 62.1101 44.9047 64.162 45.0188 66.226C45.172 68.4954 45.2963 70.7649 45.5139 73.0343C45.696 74.918 45.8981 76.7988 46.1023 78.6796C46.5287 82.5632 46.9905 86.4412 47.4124 90.3106C47.4361 90.4387 47.4229 90.5735 47.3752 90.6902C47.3275 90.8069 47.2485 90.8977 47.1526 90.946C47.1526 90.9631 47.1526 90.9801 47.1682 90.9943H48.7713C48.3272 67.3891 48.1229 43.7129 48.9068 20.1247C45.9847 19.5574 42.7228 20.956 40.4336 23.3446C38.282 25.5885 36.4212 28.8763 33.6546 29.1657C30.7902 29.4664 28.5009 26.4055 26.1939 24.2155C24.5103 22.6183 22.6254 21.4008 20.6206 20.6155C18.3624 19.7333 15.5557 19.6028 14.0014 21.8751C12.4471 24.1474 12.9068 27.5771 13.7794 30.3317C14.591 32.8594 15.6933 35.2182 17.0501 37.3301Z" fill="#D06969"/>
<path d="M37.6713 32.499C37.7009 32.5591 37.7403 32.6104 37.7868 32.6494C37.849 32.7132 37.9253 32.7505 38.0049 32.7561C38.0845 32.7617 38.1636 32.7353 38.2309 32.6806C39.0369 31.8834 40.0072 31.4154 41.0242 31.7104C41.9923 31.9941 42.8161 32.7714 43.4911 33.6735C44.2044 34.642 44.7908 35.7513 45.2275 36.9585C45.7204 38.2947 45.958 39.7613 46.1978 41.1996C46.7952 44.7915 47.115 48.4496 47.1526 52.1213C47.1682 53.7652 47.1171 55.409 46.9994 57.0461C46.9535 58.0664 46.8149 59.0765 46.5864 60.0559C46.5345 60.2668 46.4598 60.4673 46.3643 60.6517C46.3599 60.6626 46.3547 60.6731 46.3488 60.6829C46.3238 60.7181 46.2971 60.7513 46.2689 60.7822L46.2244 60.7623C46.1557 60.7207 46.0897 60.6723 46.0268 60.6176C45.8609 60.4658 45.7049 60.2969 45.5605 60.1127C44.9055 59.3127 44.3659 58.385 43.7842 57.5085C43.5155 57.1085 42.9648 57.534 43.0936 58.022C44.3126 62.6999 44.2261 67.7239 44.6835 72.572C45.0565 76.5435 45.5117 80.4952 45.9602 84.4498C46.1911 86.4923 46.4221 88.5348 46.653 90.5773C46.6674 90.6442 46.6919 90.7069 46.7253 90.7616C46.7587 90.8164 46.8001 90.8622 46.8474 90.8965C46.8946 90.9307 46.9466 90.9527 47.0005 90.9613C47.0544 90.9698 47.1091 90.9646 47.1615 90.9461H47.1903C47.2862 90.8978 47.3652 90.807 47.413 90.6903C47.4607 90.5735 47.4739 90.4388 47.4501 90.3106C47.0194 86.427 46.562 82.5491 46.1401 78.6797C45.9358 76.7989 45.7337 74.918 45.5517 73.0344C45.3296 70.7649 45.2097 68.4955 45.0565 66.226C44.9424 64.162 44.7199 62.1101 44.3904 60.0843C44.5458 60.3056 44.7034 60.5269 44.87 60.7368C45.3851 61.3949 46.2511 62.4048 46.935 61.48C47.2064 61.0584 47.3959 60.5607 47.4879 60.0276C47.6113 59.4159 47.7018 58.7941 47.7588 58.1666C47.8974 56.7632 47.9775 55.3513 47.9986 53.9369C48.0619 49.9847 47.7999 46.035 47.217 42.1528C46.975 40.5187 46.7374 38.8167 46.2555 37.2649C45.8288 35.8928 45.2336 34.6163 44.4925 33.4834C43.7882 32.3526 42.8717 31.4676 41.828 30.9104C41.3121 30.6577 40.7603 30.5468 40.2086 30.5849C39.6569 30.623 39.1176 30.8093 38.6261 31.1317C38.3506 31.3128 38.0889 31.5265 37.8445 31.77C37.7596 31.8436 37.6973 31.9525 37.6682 32.0782C37.6391 32.2039 37.6449 32.3385 37.6846 32.4593C37.6882 32.4712 37.6926 32.4826 37.698 32.4934L37.6713 32.499Z" fill="#A25255"/>
<path d="M70.0587 34.8905C68.6598 36.377 67.745 39.4294 68.8485 41.523C69.7744 43.2875 71.7129 43.8775 73.2494 43.3527C75.2367 42.6747 76.6556 40.5953 77.5349 38.3145C77.7631 37.7156 77.9633 37.0998 78.1344 36.4706C78.1788 36.3117 78.2277 36.1472 78.2743 35.9798L76.74 33.2622C76.4292 33.1143 76.109 33.0014 75.783 32.9246C73.7801 32.4423 71.6307 33.265 70.0587 34.8905Z" fill="#E6E6E6"/>
<path d="M78.2743 35.9798C78.2276 36.1472 78.1788 36.3117 78.1344 36.4705C77.9633 37.0998 77.7631 37.7155 77.5349 38.3145C76.6467 40.5839 75.2367 42.6747 73.2494 43.3527C71.7129 43.8775 69.7744 43.2875 68.8485 41.5229C67.7383 39.418 68.6598 36.3769 70.0586 34.8905C71.6307 33.265 73.7801 32.4508 75.7829 32.9245C76.109 33.0013 76.4292 33.1143 76.7399 33.2621L76.307 32.4962C76.4177 32.3595 76.5348 32.2316 76.6578 32.1132C74.2153 31.1345 71.4353 32.1132 69.4747 34.1444C69.0569 34.5934 68.6972 35.1238 68.4089 35.716C67.6028 37.3386 67.2653 39.4237 67.7938 41.191L67.8182 41.2761C68.5621 43.625 70.7847 44.859 72.6788 44.5612C75.0147 44.1952 76.8665 42.0563 77.9767 39.5088C78.2622 38.8452 78.5129 38.1581 78.7272 37.4521L78.8649 37.0124C78.8161 36.9358 78.7694 36.8564 78.725 36.7798L78.2743 35.9798Z" fill="#A5B8BE"/>
<path d="M59.687 32.5983C59.1563 32.0083 58.5057 31.4948 57.7863 31.4636C56.6361 31.4012 55.6547 32.4423 54.8997 33.4494C54.0115 34.6096 53.2655 35.9344 52.4572 37.1855C52.2707 38.9386 52.0131 40.6776 51.7622 42.4137C51.4181 44.757 51.0406 47.208 50.8363 49.6675C50.7519 51.0065 50.6942 52.3426 50.6875 53.6759C50.6963 56.0577 51.0806 58.4128 51.8177 60.6006C52.713 59.7645 53.5101 58.7691 54.1847 57.6446L54.2136 57.6021C54.2269 57.5822 54.2358 57.5595 54.2491 57.5397C54.2997 57.462 54.3691 57.4082 54.4463 57.3866C54.5235 57.365 54.6041 57.377 54.6754 57.4205H54.6999C54.7998 57.4748 54.8794 57.5765 54.9219 57.7042C54.9303 57.7274 54.9377 57.751 54.9441 57.7751C54.9692 57.867 54.9692 57.967 54.9441 58.0588C54.2358 60.7737 53.9804 63.6275 53.7939 66.4671C53.6452 68.7111 53.5164 70.955 53.2988 73.1904C53.1123 75.1195 52.9035 77.0428 52.6926 78.969C52.264 82.8526 51.8044 86.7306 51.3781 90.6C51.348 90.7343 51.2779 90.8482 51.1828 90.9171C51.0877 90.9861 50.9753 91.0047 50.8696 90.9688H50.8452L50.8319 91.0142H52.0464C52.1696 90.6761 52.2498 90.315 52.284 89.9447C53.4831 80.9198 54.6451 71.8864 55.7701 62.8445C55.9389 61.4885 56.1076 60.1155 56.0055 58.7481C55.7568 55.4149 53.9205 52.2235 54.6222 48.9895C54.8864 47.7782 55.4837 46.7399 56.0388 45.7044C57.0313 43.8548 59.5915 37.994 60.1488 33.4636C60.1844 33.1799 60.211 32.8962 60.2288 32.6409C60.1493 32.7175 60.0511 32.7553 59.9517 32.7475C59.8524 32.7397 59.7585 32.6868 59.687 32.5983Z" fill="#F69576"/>
<path d="M48.7846 91.0001H50.8208L50.8341 90.9547C50.7369 90.9073 50.6566 90.8165 50.6079 90.6991C50.5593 90.5816 50.5458 90.4456 50.5699 90.3164C50.7919 88.2739 51.0317 86.2314 51.2649 84.1889C51.7089 80.2797 52.153 76.3706 52.5305 72.4501C52.9058 68.4303 52.9191 64.2914 53.5919 60.3255C53.5581 60.265 53.534 60.1965 53.5208 60.1241C53.0045 60.7507 52.4474 61.3202 51.8555 61.8262C51.7606 61.8965 51.6478 61.9159 51.5417 61.8803C51.4356 61.8447 51.3449 61.7569 51.2893 61.6361C50.1791 58.7993 49.8105 55.6391 49.866 52.4874C49.917 49.608 50.2879 46.7485 50.6942 43.9201C50.8985 42.5017 51.1116 41.1032 51.307 39.6933C51.4033 39.0049 51.4921 38.3146 51.5735 37.6224C51.6112 37.2848 51.6001 36.8423 51.7689 36.57C51.8955 36.3685 52.0265 36.17 52.153 35.9686C53.21 34.2665 54.2291 32.4055 55.6724 31.214C56.3093 30.6561 57.0677 30.3692 57.8396 30.3942C58.7722 30.4708 59.5804 31.0722 60.2821 31.841C60.3528 31.9103 60.3999 32.0118 60.4135 32.1243C60.4272 32.2368 60.4063 32.3518 60.3553 32.4452C60.7622 32.7106 61.1864 32.9298 61.6232 33.1005C63.6216 33.8664 65.842 33.648 67.8227 32.7856C70.2874 31.7133 72.4501 29.7445 74.464 27.6396C75.6719 26.3744 78.9582 22.939 80.4459 25.6198C81.8181 28.0963 78.1499 30.6268 76.6711 32.1048C76.5482 32.2232 76.431 32.3511 76.3203 32.4878L76.7533 33.2537L78.2876 35.9714L78.7317 36.7714C78.7761 36.848 78.8227 36.9274 78.8716 37.004C79.2668 37.6366 79.8131 38.238 80.377 37.9571C80.6101 37.8119 80.8103 37.5932 80.9588 37.3217C82.3081 35.2099 83.4037 32.8531 84.2095 30.3289C85.0977 27.5744 85.524 24.1134 83.9875 21.8724C82.4509 19.6313 79.6265 19.7306 77.3684 20.6128C75.3635 21.3981 73.4786 22.6156 71.795 24.2127C69.488 26.4028 67.1987 29.4637 64.3344 29.163C61.5677 28.8793 59.707 25.5858 57.5554 23.3418C55.2661 20.9532 51.84 19.5462 48.9201 20.122C48.1363 43.7187 48.3428 67.3949 48.7846 91.0001Z" fill="#D06969"/>
<path d="M50.6809 53.6646C50.6809 52.3313 50.7453 50.9952 50.8296 49.6562C50.7127 50.9869 50.663 52.3258 50.6809 53.6646Z" fill="#D06969"/>
<path d="M51.367 90.5972C51.7977 86.7136 52.2552 82.8356 52.6815 78.9662C52.8924 77.04 53.1011 75.1166 53.2877 73.1876C53.5097 70.9522 53.6341 68.7083 53.7828 66.4643C53.9693 63.6275 54.2269 60.7708 54.933 58.056C54.9581 57.9641 54.9581 57.8642 54.933 57.7723C54.9266 57.7482 54.9192 57.7245 54.9108 57.7014C54.8683 57.5737 54.7887 57.472 54.6888 57.4177H54.6643C54.593 57.3742 54.5124 57.3622 54.4352 57.3838C54.358 57.4054 54.2886 57.4592 54.238 57.5368C54.2247 57.5567 54.2158 57.5794 54.2025 57.5993L54.1736 57.6418C53.499 58.7663 52.7019 59.7617 51.8066 60.5978C51.0695 58.41 50.6852 56.0549 50.6764 53.6731C50.6586 52.3342 50.7083 50.9953 50.8252 49.6647C51.0295 47.2051 51.407 44.7541 51.7511 42.4109C52.0065 40.6748 52.2596 38.9358 52.4461 37.1826C53.2521 35.9316 54.0004 34.6068 54.8886 33.4466C55.6524 32.4452 56.6339 31.404 57.7752 31.4608C58.4946 31.4977 59.1452 32.0111 59.6759 32.5955C59.748 32.6782 59.8404 32.7263 59.9372 32.7314C60.0341 32.7366 60.1293 32.6986 60.2066 32.6239C60.2565 32.5763 60.2993 32.5177 60.3331 32.4508C60.3841 32.3574 60.4049 32.2425 60.3913 32.1299C60.3776 32.0174 60.3306 31.9159 60.2598 31.8466C59.5693 31.0778 58.761 30.4764 57.8174 30.3998C57.0454 30.3749 56.2871 30.6617 55.6502 31.2196C54.2069 32.4111 53.1877 34.2862 52.1308 35.9741C52.0043 36.1756 51.8732 36.3741 51.7467 36.5755C51.5779 36.8592 51.589 37.2905 51.5513 37.628C51.4684 38.3202 51.3796 39.0105 51.2848 39.6989C51.0894 41.1173 50.8763 42.5159 50.672 43.9258C50.2656 46.7626 49.8948 49.5994 49.8438 52.493C49.7882 55.6447 50.1635 58.7992 51.2671 61.6417C51.3227 61.7626 51.4134 61.8503 51.5195 61.886C51.6256 61.9216 51.7384 61.9021 51.8333 61.8318C52.4252 61.3258 52.9823 60.7564 53.4986 60.1297C53.5117 60.2021 53.5359 60.2706 53.5697 60.3311C52.9035 64.3027 52.8835 68.4359 52.5083 72.4557C52.1419 76.3762 51.6867 80.2853 51.2426 84.1945C51.0095 86.237 50.7741 88.2795 50.5476 90.322C50.5236 90.4513 50.5371 90.5873 50.5857 90.7047C50.6343 90.8221 50.7147 90.913 50.8119 90.9603H50.8363C50.8898 90.9825 50.9462 90.9906 51.0022 90.9842C51.0582 90.9778 51.1126 90.9571 51.1622 90.9231C51.2117 90.8892 51.2554 90.8429 51.2906 90.7868C51.3258 90.7308 51.3518 90.6663 51.367 90.5972Z" fill="#A25255"/>
</g>
<defs>
<clipPath id="clip0_18_125">
<rect width="72" height="71" fill="white" transform="translate(13 20)"/>
</clipPath>
</defs>
</svg>
