<svg width="19" height="17" viewBox="0 0 19 17" fill="none" xmlns="http://www.w3.org/2000/svg">
<path d="M10.6392 0.311713L6.23718 4.25003H1.18747C0.531392 4.25003 0 4.7255 0 5.31253V11.6875C0 12.2741 0.531392 12.75 1.18747 12.75H6.23718L10.6392 16.6879C11.3829 17.3533 12.6663 16.8858 12.6663 15.9366V1.06343C12.6663 0.112937 11.3819 -0.352347 10.6392 0.311713ZM16.7349 5.09648C16.1619 4.81625 15.4391 5.00086 15.1214 5.51484C14.8053 6.02883 15.0146 6.67473 15.589 6.95851C16.2278 7.27283 16.6246 7.8634 16.6246 8.50001C16.6246 9.13662 16.2278 9.72719 15.5895 10.0411C15.015 10.3248 14.8058 10.9708 15.1219 11.4847C15.4401 12.0009 16.1634 12.1842 16.7354 11.9031C18.1322 11.2147 19 9.91092 19 8.49957C19 7.08822 18.1322 5.78489 16.7349 5.09648Z" fill="#348ECB"/>
</svg>
